<?xml version="1.0" encoding="UTF-8"?>
<svg width="366px" height="366px" viewBox="0 0 366 366" version="1.1" xmlns="http://www.w3.org/2000/svg" xmlns:xlink="http://www.w3.org/1999/xlink">
    <!-- Generator: Sketch 39.1 (31720) - http://www.bohemiancoding.com/sketch -->
    <title>Untitled 2</title>
    <desc>Created with Sketch.</desc>
    <defs></defs>
    <g id="Page-1" stroke="none" stroke-width="1" fill="none" fill-rule="evenodd">
        <polygon id="Path-5" fill="#FF4500" points="92.3994789 111.271557 55 365.575436 286.339641 365.575436 323 306.205914 286.339645 111.271557"></polygon>
        <path d="M242.38,177.44 L219.18,177.44 C219.18,177.44 192.299996,260.32 189.259996,273.44 C186.22,260 160.78,177.44 160.78,177.44 L137.74,177.44 L116.512735,299.999998 L137.74,299.999998 C137.74,299.999998 151.34,212.96 151.66,197.76 C154.700002,212.48 180.707384,299.999998 180.707384,299.999998 L198.968431,299.999998 C198.968431,299.999998 224.384989,212.16 228.064989,197.76 L242.379999,299.999998 L265.560923,299.999998 L242.38,177.44 Z" id="M" fill="#FFFFFF"></path>
        <path d="M225.271927,112.136459 L225.271927,102.667339 L225.271927,52.5 C225.271927,28.5481663 210.135506,17.1447048 190,17.1447048 C169.864494,17.1447048 155.240097,27.733614 155.240097,52.5 L155.240097,112.136459 L138,112.136459 L138,52.5 C138,23.5513458 161.051346,0 190,0 C218.948654,0 244,23.5513458 244,52.5 L244,112.136459 L225.271927,112.136459 Z" id="Shape" fill="#FF4500"></path>
    </g>
</svg>